<?xml version="1.0" encoding="UTF-8"?>
<!-- Generator: Adobe Illustrator 23.0.3, SVG Export Plug-In . SVG Version: 6.00 Build 0)  -->
<svg version="1.1" id="Layer_1" xmlns="http://www.w3.org/2000/svg" xmlns:xlink="http://www.w3.org/1999/xlink" x="0px" y="0px" viewBox="0 0 439.5 102.4" style="enable-background:new 0 0 439.5 102.4;" xml:space="preserve">
<style type="text/css">
	.st0{clip-path:url(#SVGID_2_);}
	.st1{clip-path:url(#SVGID_4_);fill:#FFD42A;}
	.st2{clip-path:url(#SVGID_6_);fill:#FFD42A;}
	.st3{clip-path:url(#SVGID_8_);fill:#131718;}
	.st4{clip-path:url(#SVGID_10_);fill:#131718;}
	.st5{clip-path:url(#SVGID_12_);fill:#EA3327;}
	.st6{clip-path:url(#SVGID_14_);fill:#EA3327;}
	.st7{clip-path:url(#SVGID_16_);fill:#FFFFFF;}
	.st8{clip-path:url(#SVGID_18_);fill:#E91D26;}
	.st9{clip-path:url(#SVGID_20_);fill:#FDDF2D;}
	.st10{clip-path:url(#SVGID_22_);fill:#131718;}
	.st11{clip-path:url(#SVGID_24_);fill:#131718;}
	.st12{clip-path:url(#SVGID_26_);fill:#131718;}
	.st13{clip-path:url(#SVGID_28_);fill:#131718;}
	.st14{clip-path:url(#SVGID_30_);fill:#BEC5C2;}
	.st15{clip-path:url(#SVGID_32_);fill:#FFFFFF;}
	.st16{clip-path:url(#SVGID_34_);fill:#E91D26;}
	.st17{clip-path:url(#SVGID_36_);fill:#E91D26;}
	.st18{clip-path:url(#SVGID_38_);fill:#BEC5C2;}
	.st19{clip-path:url(#SVGID_40_);fill:#BEC5C2;}
	.st20{clip-path:url(#SVGID_42_);fill:#FFFFFF;}
	.st21{clip-path:url(#SVGID_44_);fill:#BEC5C2;}
</style>
<g>
	<g>
		<path d="M29.6,60.3c0,9.4-5.5,14-14.8,14S0,69.8,0,60.3V38.7h7.6v21.6c0,3.8,1,7.5,7.2,7.5c5.5,0,7.2-2.4,7.2-7.5V38.7h7.6    L29.6,60.3L29.6,60.3z"/>
		<path d="M57.9,71.9c0,4.1-1.5,11.1-13,11.1c-5,0-10.8-2.3-11.1-8.1h6.9c0.6,2.6,2.7,3.5,5.2,3.5c3.8,0,5.6-2.6,5.5-6.2v-3.3h-0.1    c-1.5,2.6-4.5,3.9-7.5,3.9c-7.5,0-10.8-5.7-10.8-12.7c0-6.5,3.7-12.5,10.8-12.5c3.3,0,5.8,1.1,7.5,4h0.1v-3.4H58v23.7H57.9z     M51.3,60.6c0-4.1-1.4-7.7-5.9-7.7c-3.9,0-5.6,3.4-5.6,7.2c0,3.6,1.4,7.5,5.6,7.5C49.4,67.5,51.3,64.2,51.3,60.6"/>
		<path d="M61.5,56.1c0.4-6.5,6.2-8.4,11.8-8.4c5,0,11,1.1,11,7.2V68c0,2.3,0.2,4.6,0.9,5.6h-7c-0.2-0.8-0.4-1.6-0.5-2.4    c-2.2,2.3-5.4,3.1-8.5,3.1c-4.8,0-8.6-2.4-8.6-7.5c0-5.7,4.3-7.1,8.6-7.6c4.2-0.6,8.2-0.5,8.2-3.3c0-3-2-3.4-4.5-3.4    c-2.6,0-4.3,1.1-4.6,3.8h-6.8V56.1z M77.4,61.2c-1.2,1-3.6,1.1-5.7,1.5c-2.1,0.4-4.1,1.2-4.1,3.7c0,2.6,2,3.2,4.2,3.2    c5.4,0,5.6-4.3,5.6-5.8V61.2z"/>
		<path d="M89.1,48.3h6.6v3.5h0.1c1.8-2.8,4.8-4.2,7.7-4.2c7.3,0,9.2,4.1,9.2,10.4v15.5h-6.9V59.3c0-4.1-1.2-6.2-4.4-6.2    c-3.7,0-5.4,2.1-5.4,7.2v13.2h-6.9V48.3z"/>
		<path d="M134.2,70.3L134.2,70.3c-1.7,2.7-4.5,3.9-7.7,3.9c-7.6,0-11.3-6.5-11.3-13.5c0-6.8,3.7-13,11.1-13c3,0,5.9,1.3,7.4,3.7    h0.1V38.7h6.9v34.7h-6.6v-3.1H134.2z M128.2,52.8c-4.5,0-6.1,3.9-6.1,8c0,3.9,1.8,8.1,6.1,8.1c4.6,0,5.9-4,5.9-8.1    S132.7,52.8,128.2,52.8"/>
		<path d="M144,56.1c0.4-6.5,6.2-8.4,11.8-8.4c5,0,11,1.1,11,7.2V68c0,2.3,0.2,4.6,0.9,5.6h-7c-0.2-0.8-0.4-1.6-0.5-2.4    c-2.2,2.3-5.4,3.1-8.5,3.1c-4.8,0-8.6-2.4-8.6-7.5c0-5.7,4.3-7.1,8.6-7.6c4.2-0.6,8.2-0.5,8.2-3.3c0-3-2-3.4-4.5-3.4    c-2.6,0-4.3,1.1-4.6,3.8H144V56.1z M160,61.2c-1.2,1-3.6,1.1-5.7,1.5c-2.1,0.4-4.1,1.2-4.1,3.7c0,2.6,2,3.2,4.2,3.2    c5.4,0,5.6-4.3,5.6-5.8V61.2z"/>
		<path d="M190.4,38.7h7.8l13,34.7h-7.9l-2.6-7.7h-13l-2.7,7.7h-7.7L190.4,38.7z M189.7,60h9l-4.4-12.8h-0.1L189.7,60z"/>
		<path d="M218.9,44.4H212v-5.7h6.9V44.4z M212,48.3h6.9v25.2H212V48.3z"/>
		<path d="M221.6,48.3h6.6V53h0.1c1.3-3.2,4.7-5.4,8-5.4c0.5,0,1.1,0.1,1.5,0.2v6.4c-0.6-0.1-1.7-0.2-2.5-0.2    c-5.1,0-6.8,3.6-6.8,8.1v11.3h-6.9L221.6,48.3L221.6,48.3z"/>
		<rect x="240.1" y="38.7" width="6.9" height="34.7"/>
		<path d="M258.4,44.4h-6.9v-5.7h6.9V44.4z M251.5,48.3h6.9v25.2h-6.9V48.3z"/>
		<path d="M262.2,48.3h6.6v3.5h0.1c1.8-2.8,4.8-4.2,7.7-4.2c7.3,0,9.2,4.1,9.2,10.4v15.5h-6.9V59.3c0-4.1-1.2-6.2-4.4-6.2    c-3.7,0-5.4,2.1-5.4,7.2v13.2h-6.9L262.2,48.3L262.2,48.3z"/>
		<path d="M295,62.6c0.2,4.4,2.3,6.4,6.2,6.4c2.8,0,5-1.7,5.5-3.3h6.1c-1.9,5.9-6.1,8.5-11.8,8.5c-7.9,0-12.8-5.5-12.8-13.2    c0-7.5,5.2-13.3,12.8-13.3c8.6,0,12.7,7.2,12.2,14.9L295,62.6L295,62.6z M306.3,58.2c-0.6-3.5-2.1-5.4-5.5-5.4    c-4.4,0-5.6,3.4-5.7,5.4H306.3z"/>
		<path d="M320.9,65.3c0.1,3,2.6,4.2,5.3,4.2c2,0,4.5-0.8,4.5-3.2c0-2.1-2.9-2.8-7.8-3.9c-4-0.9-8-2.3-8-6.7c0-6.4,5.5-8.1,10.9-8.1    c5.5,0,10.6,1.9,11.1,8h-6.6c-0.2-2.7-2.2-3.4-4.7-3.4c-1.6,0-3.8,0.3-3.8,2.3c0,2.5,3.9,2.8,7.8,3.7c4,0.9,8,2.4,8,7.1    c0,6.6-5.7,8.8-11.5,8.8s-11.5-2.2-11.8-8.9L320.9,65.3L320.9,65.3z"/>
	</g>
	<g>
		<g>
			<defs>
				<path id="SVGID_1_" d="M439.5,0l-25.9,73.1H345l69.6-70.3c1.5-1.7,3.8-2.7,6.1-2.8H439.5z"/>
			</defs>
			<clipPath id="SVGID_2_">
				<use xlink:href="#SVGID_1_" style="overflow:visible;"/>
			</clipPath>
			<g class="st0">
				<g>
					<g>
						<defs>
							<rect id="SVGID_3_" x="238.3" y="-8.9" width="256.9" height="112.6"/>
						</defs>
						<clipPath id="SVGID_4_">
							<use xlink:href="#SVGID_3_" style="overflow:visible;"/>
						</clipPath>
						<path class="st1" d="M238.3,90c40.7,18.8,82.7,10.4,121.9-8c43.6-20.5,87.7-23.8,133.1-5.9c-0.7-6.5-1-9.8-1.7-16.5        c-22.7-7.8-45.7-11.5-69.8-9.1c-23.6,2.4-42.1,11-62.1,23.2C322,96.7,280.8,106.7,238.3,90"/>
					</g>
					<g>
						<defs>
							<rect id="SVGID_5_" x="238.3" y="-8.9" width="256.9" height="112.6"/>
						</defs>
						<clipPath id="SVGID_6_">
							<use xlink:href="#SVGID_5_" style="overflow:visible;"/>
						</clipPath>
						<path class="st2" d="M238.3,90c23.4,6.3,45.3,6.7,68.7,0.4c21.7-5.9,36.5-18.2,52.5-33.5c18.1-17.3,34.5-30.2,59.6-34.7        c23.4-4.2,46.5-1.7,69.4,4.1c-0.6-6.6-1-10-1.7-16.5c-22.4-4.5-45.1-6.3-67.6-1.6c-25.2,5.3-40.9,18.7-57.6,37.6        c-16.6,18.6-31.2,34.4-55.6,42C283.3,94.7,261.4,94.8,238.3,90"/>
					</g>
					<g>
						<defs>
							<rect id="SVGID_7_" x="238.3" y="-8.9" width="256.9" height="112.6"/>
						</defs>
						<clipPath id="SVGID_8_">
							<use xlink:href="#SVGID_7_" style="overflow:visible;"/>
						</clipPath>
						<path class="st3" d="M238.3,90c23.1,4.8,45,4.7,67.7-2.3c24.4-7.5,39.1-23.4,55.6-42c16.7-18.8,32.5-32.3,57.6-37.6        c22.6-4.7,45.2-2.9,67.6,1.6c-0.7-6.5-1.1-9.8-1.8-16.1c-22.5-3.2-45.1-4-67.3,1.9c-25.5,6.7-40.9,21.7-56.9,41.9        S330.7,74.8,306,83.9C283.8,92.1,261.6,93.1,238.3,90"/>
					</g>
					<g>
						<defs>
							<rect id="SVGID_9_" x="238.3" y="-8.9" width="256.9" height="112.6"/>
						</defs>
						<clipPath id="SVGID_10_">
							<use xlink:href="#SVGID_9_" style="overflow:visible;"/>
						</clipPath>
						<path class="st4" d="M491.7,59.5C469,51.7,446,48,421.9,50.4c-23.6,2.4-42.1,11-62.1,23.2c-37.8,23-79.1,33-121.6,16.3        c44.6,14.7,85.3,3.5,121.4-24.7c19-14.9,36.6-25.5,60.9-29c23.7-3.3,46.8-0.2,69.6,6.6C490.7,49.5,491.1,52.9,491.7,59.5"/>
					</g>
					<g>
						<defs>
							<rect id="SVGID_11_" x="238.3" y="-8.9" width="256.9" height="112.6"/>
						</defs>
						<clipPath id="SVGID_12_">
							<use xlink:href="#SVGID_11_" style="overflow:visible;"/>
						</clipPath>
						<path class="st5" d="M490.1,42.9c-22.8-6.8-45.9-9.9-69.6-6.6c-24.3,3.4-41.8,14.1-60.9,29c-36.1,28.2-76.8,39.4-121.4,24.7        c23.4,6.3,45.3,6.7,68.7,0.4c21.7-5.9,36.5-18.2,52.5-33.5c18.1-17.3,34.5-30.2,59.6-34.7c23.4-4.2,46.5-1.7,69.4,4.1        C489.2,32.8,489.5,36.2,490.1,42.9"/>
					</g>
					<g>
						<defs>
							<rect id="SVGID_13_" x="238.3" y="-8.9" width="256.9" height="112.6"/>
						</defs>
						<clipPath id="SVGID_14_">
							<use xlink:href="#SVGID_13_" style="overflow:visible;"/>
						</clipPath>
						<path class="st6" d="M238.3,90c39.7,21.2,81.9,15.1,122.7,0.1c45.1-16.6,89.6-17.9,134.2,2.1c-0.8-6.4-1.1-9.6-1.8-16.1        C448,58.3,403.8,61.5,360.3,82C321,100.4,279,108.7,238.3,90"/>
					</g>
				</g>
			</g>
		</g>
		<g>
			<defs>
				<path id="SVGID_15_" d="M439.5,0l-25.9,73.1H345l69.6-70.3c1.5-1.7,3.8-2.7,6.1-2.8H439.5z"/>
			</defs>
			<clipPath id="SVGID_16_">
				<use xlink:href="#SVGID_15_" style="overflow:visible;"/>
			</clipPath>
			<path class="st7" d="M401.8,53.5c6.9,0,12.4-5.6,12.4-12.4c0-6.9-5.6-12.4-12.4-12.4c-6.9,0-12.4,5.6-12.4,12.4     C389.4,47.9,395,53.5,401.8,53.5"/>
		</g>
		<g>
			<defs>
				<path id="SVGID_17_" d="M439.5,0l-25.9,73.1H345l69.6-70.3c1.5-1.7,3.8-2.7,6.1-2.8H439.5z"/>
			</defs>
			<clipPath id="SVGID_18_">
				<use xlink:href="#SVGID_17_" style="overflow:visible;"/>
			</clipPath>
			<path class="st8" d="M399.7,31.7l-0.9-1.6c1.5-1.1,4.6-0.6,5.1,2.1l-1.4,0.3L399.7,31.7z"/>
		</g>
		<g>
			<defs>
				<path id="SVGID_19_" d="M439.5,0l-25.9,73.1H345l69.6-70.3c1.5-1.7,3.8-2.7,6.1-2.8H439.5z"/>
			</defs>
			<clipPath id="SVGID_20_">
				<use xlink:href="#SVGID_19_" style="overflow:visible;"/>
			</clipPath>
			<path class="st9" d="M401.9,32.3l-1.6-0.4l0.1-2.3c0.9,0,1.9,0.3,2.6,0.9L401.9,32.3z"/>
		</g>
		<g>
			<defs>
				<path id="SVGID_21_" d="M439.5,0l-25.9,73.1H345l69.6-70.3c1.5-1.7,3.8-2.7,6.1-2.8H439.5z"/>
			</defs>
			<clipPath id="SVGID_22_">
				<use xlink:href="#SVGID_21_" style="overflow:visible;"/>
			</clipPath>
			<path class="st10" d="M401.5,43.7c0.7,2.1,0,2.7,0.3,4c0.2,1,0.2,2.5,0.1,3.3c-1.2-0.2-2.4,0-3,0.6c0.6-0.1,1.4-0.1,2,0     c-0.4,0.1-0.9,0.7-0.9,1.3c0.8-0.9,2.7-1.7,4.6-1.3c-0.1-0.3-1.1-0.7-2-0.6c-0.1-0.6-0.4-2.2-0.2-3c0.2-1.1-0.1-2.7,0.1-3.3     c0.2-0.6,0.5-0.9,0.6-1.5"/>
		</g>
		<g>
			<defs>
				<path id="SVGID_23_" d="M439.5,0l-25.9,73.1H345l69.6-70.3c1.5-1.7,3.8-2.7,6.1-2.8H439.5z"/>
			</defs>
			<clipPath id="SVGID_24_">
				<use xlink:href="#SVGID_23_" style="overflow:visible;"/>
			</clipPath>
			<path class="st11" d="M406.4,40.6c3.2,1.1,2.7,3.2,1.8,3.6c-2,0.8-5.2,0.3-7.8-0.8c-1.1-0.5-2.6-1.8-2.3-3     c0.3-1.2,2.8-2.3,4.2-1.5C403.8,39.6,405.8,40.4,406.4,40.6"/>
		</g>
		<g>
			<defs>
				<path id="SVGID_25_" d="M439.5,0l-25.9,73.1H345l69.6-70.3c1.5-1.7,3.8-2.7,6.1-2.8H439.5z"/>
			</defs>
			<clipPath id="SVGID_26_">
				<use xlink:href="#SVGID_25_" style="overflow:visible;"/>
			</clipPath>
			<path class="st12" d="M400.9,41.2c-0.6,0.7-0.4,2.6,0.6,3.1c0.9,0.4,1.3,0.8,1.7,1.4c0.4,0.6,0.5,1.1-0.4,1     c-2.2-0.2-4.8-0.4-5.5,0.3c-0.6,0.5-0.6,1.2-0.4,2c0.3-0.4,0.1-1.1,0.5-1.4c-0.1,0.3-0.1,0.9,0.2,1.3c0-0.4,0.1-1.4,0.4-1.5     c0.3,0.2,0,0.8,0.3,1.1c0.2-0.3,0-0.7,0.4-1c0.3-0.3,0.9-0.5,2-0.4s1.9,0.1,2.4,0.1s0.7-0.1,1,0s0.5,0,0.6-0.2s0.3-0.5-0.1-0.8     c-0.3-0.3-0.9-1.3-0.5-2c0.3-0.5,0.2-1.3,0-1.6"/>
		</g>
		<g>
			<defs>
				<path id="SVGID_27_" d="M439.5,0l-25.9,73.1H345l69.6-70.3c1.5-1.7,3.8-2.7,6.1-2.8H439.5z"/>
			</defs>
			<clipPath id="SVGID_28_">
				<use xlink:href="#SVGID_27_" style="overflow:visible;"/>
			</clipPath>
			<path class="st13" d="M397.9,33.8c0.1,0.2,0.7,0.1,1.8-0.1c0,0.2,0.5,0.4,0.3,0.7c-0.9,1.2-2.2,2.5-2.5,4.4     c-0.2,1,0.1,2.4,1.1,3.3c0-0.3,0-0.7,0-0.9c0.1,0.1,0.2,0.3,0.4,0.4c0-0.1,0.1-0.6,0.1-0.7c0.2,0.1,0.4,0.2,0.6,0.2     c0-0.2-0.1-0.6-0.1-0.7c0.2,0.1,0.4,0.2,0.5,0.3c-0.1-0.2-0.3-0.6-0.3-0.8c0.1,0.1,0.4,0.3,0.4,0.3c-0.1-0.1-0.1-0.6-0.2-0.7     c0.1,0,0.4,0.2,0.7,0.3c-0.1-0.2-0.1-0.7-0.2-0.7c0.2,0.1,0.5,0.2,0.6,0.3c-0.1-0.2,0-0.5-0.1-0.6c0.2,0.1,0.6-0.1,0.9,0     c-0.3-0.4-0.7-0.6-0.8-1c-0.2-1.3,0.1-2.9,0.8-3.4c1.2-0.8,1.4-2.7-0.4-3.3c-1-0.4-2.4,0.4-1.9,2c-1.2,0.2-1.9,0.4-1.8,0.8     C397.7,33.9,397.8,33.8,397.9,33.8"/>
		</g>
		<g>
			<defs>
				<path id="SVGID_29_" d="M439.5,0l-25.9,73.1H345l69.6-70.3c1.5-1.7,3.8-2.7,6.1-2.8H439.5z"/>
			</defs>
			<clipPath id="SVGID_30_">
				<use xlink:href="#SVGID_29_" style="overflow:visible;"/>
			</clipPath>
			<path class="st14" d="M400.8,38.6c-0.3,1.1,0.2,2.8,2.4,3.6c2.2,0.8,3.8,2.5,3.3,3.8c0.3-0.1,1.1-1.1,0.6-2c0.7,1-0.1,2.5-1,3.1     c-0.3,0.2,0,0.4,0.3,0.3c-0.3,0.1-0.5,0.4-0.2,0.4c0.2,0,0.8-0.3,1.1-0.5c-0.2,0.2-0.6,0.4-0.4,0.6s0.6-0.1,1-0.5     c-0.2,0.3-0.5,0.7-0.8,0.8c-0.2,0.2-0.2,0.6,0.2,0.3c1-0.7,2.1-1.7,2.4-2.8c0.2-1.1,0.7-3.5-2-4.8s-4-1.7-4.8-2.2     C401.9,38.3,401.1,37.8,400.8,38.6"/>
		</g>
		<g>
			<defs>
				<path id="SVGID_31_" d="M439.5,0l-25.9,73.1H345l69.6-70.3c1.5-1.7,3.8-2.7,6.1-2.8H439.5z"/>
			</defs>
			<clipPath id="SVGID_32_">
				<use xlink:href="#SVGID_31_" style="overflow:visible;"/>
			</clipPath>
			<path class="st15" d="M406.3,40.9c-0.6-0.1-2.3-0.7-3-1.1s-1.6-0.4-1.5,0.3c0.1,0.7,1.7,1,2.1,1.7s2,0.8,2.5,0.9     C406.9,42.8,408.7,42.1,406.3,40.9"/>
		</g>
		<g>
			<defs>
				<path id="SVGID_33_" d="M439.5,0l-25.9,73.1H345l69.6-70.3c1.5-1.7,3.8-2.7,6.1-2.8H439.5z"/>
			</defs>
			<clipPath id="SVGID_34_">
				<use xlink:href="#SVGID_33_" style="overflow:visible;"/>
			</clipPath>
			<path class="st16" d="M404.3,42.4c0.6,0.4,1.1,0.5,1.8,1.4c0.5,0.7,0.7,1.6,0.5,2.3c0.3-0.1,1.1-1.1,0.6-2c0.7,1-0.1,2.5-1,3.1     c-0.3,0.2,0,0.4,0.3,0.3c-0.3,0.1-0.5,0.4-0.2,0.4c0.2,0,0.8-0.3,1.1-0.5c-0.2,0.2-0.6,0.4-0.4,0.6s0.6-0.1,1-0.5     c-0.2,0.3-0.5,0.7-0.8,0.8c-0.2,0.2-0.2,0.6,0.2,0.3c1-0.7,2.1-1.7,2.4-2.8c0.2-1.1,0.7-3.4-2-4.8c-0.5-0.2-1.8-0.5-2.1-0.6     c0.6,0.2,1.3,1.2,1.5,1.4c-0.4-0.2-1.7-0.8-2-0.9c0.3,0.3,0.5,0.4,0.8,1c-0.4-0.2-1.4-0.4-1.7-0.4c0.3,0.1,0.6,0.5,0.8,0.7     C404.5,42,403.7,42.1,404.3,42.4"/>
		</g>
		<g>
			<defs>
				<path id="SVGID_35_" d="M439.5,0l-25.9,73.1H345l69.6-70.3c1.5-1.7,3.8-2.7,6.1-2.8H439.5z"/>
			</defs>
			<clipPath id="SVGID_36_">
				<use xlink:href="#SVGID_35_" style="overflow:visible;"/>
			</clipPath>
			<path class="st17" d="M399.6,33.7c-0.4,0.3-0.8,0.8-0.5,1.2c0.3,0.4,1,0,1.1-0.3C400.4,34,399.6,34,399.6,33.7"/>
		</g>
		<g>
			<defs>
				<path id="SVGID_37_" d="M439.5,0l-25.9,73.1H345l69.6-70.3c1.5-1.7,3.8-2.7,6.1-2.8H439.5z"/>
			</defs>
			<clipPath id="SVGID_38_">
				<use xlink:href="#SVGID_37_" style="overflow:visible;"/>
			</clipPath>
			<path class="st18" d="M400.4,34.8c-1.3,1.5-1.8,3.4-1.9,4.6c0,0.6,0.3,0.9,0.5,1.2c0-0.1,0-0.6-0.1-0.7c0.1,0.1,0.4,0.2,0.5,0.3     c0-0.2-0.2-0.6-0.2-0.6c0.1,0.1,0.4,0,0.4,0.1c0-0.1-0.1-0.4-0.2-0.4c0.1,0,0.6,0.1,0.6,0.1c-0.1-0.1-0.3-0.5-0.3-0.5     c0.1,0,0.5,0.1,0.6,0.1c-0.3-0.3-1-1,0.1-3.8C400.7,34.7,400.7,34.5,400.4,34.8"/>
		</g>
		<g>
			<defs>
				<path id="SVGID_39_" d="M439.5,0l-25.9,73.1H345l69.6-70.3c1.5-1.7,3.8-2.7,6.1-2.8H439.5z"/>
			</defs>
			<clipPath id="SVGID_40_">
				<use xlink:href="#SVGID_39_" style="overflow:visible;"/>
			</clipPath>
			<path class="st19" d="M401.3,41.6c-0.3,0.7-0.1,1.6,0,1.8c-0.1-0.3,0.9-0.6,1.6,0C402.7,43.1,401.4,42.1,401.3,41.6"/>
		</g>
		<g>
			<defs>
				<path id="SVGID_41_" d="M439.5,0l-25.9,73.1H345l69.6-70.3c1.5-1.7,3.8-2.7,6.1-2.8H439.5z"/>
			</defs>
			<clipPath id="SVGID_42_">
				<use xlink:href="#SVGID_41_" style="overflow:visible;"/>
			</clipPath>
			<path class="st20" d="M400.3,32.6c-0.3,0-0.3,0.5,0,0.5S400.6,32.6,400.3,32.6"/>
		</g>
		<g>
			<defs>
				<path id="SVGID_43_" d="M439.5,0l-25.9,73.1H345l69.6-70.3c1.5-1.7,3.8-2.7,6.1-2.8H439.5z"/>
			</defs>
			<clipPath id="SVGID_44_">
				<use xlink:href="#SVGID_43_" style="overflow:visible;"/>
			</clipPath>
			<path class="st21" d="M401.5,32.2c0.2,0.7-0.1,1.1-0.5,1.2s-0.4,0.7,0.2,0.6c1.1-0.2,1.1-1.2,0.6-2     C401.6,31.8,401.4,31.8,401.5,32.2"/>
		</g>
	</g>
	<g>
		<path d="M60.7,98.4V84.8h9.2v1.6h-7.4v4.2h6.4v1.6h-6.4v6.2H60.7z"/>
		<path d="M71.6,98.4V84.8h1.7v13.6H71.6z"/>
		<path d="M75.5,102.2l-0.2-1.6c0.4,0.1,0.7,0.1,1,0.1c0.4,0,0.7-0.1,0.9-0.2c0.2-0.1,0.4-0.3,0.5-0.5s0.3-0.6,0.5-1.2    c0-0.1,0.1-0.2,0.1-0.4l-3.7-9.9h1.8l2,5.7c0.3,0.7,0.5,1.5,0.7,2.3c0.2-0.8,0.4-1.5,0.7-2.2l2.1-5.7h1.7l-3.7,10    c-0.4,1.1-0.7,1.8-0.9,2.2c-0.3,0.6-0.6,1-1,1.2c-0.4,0.3-0.8,0.4-1.4,0.4C76.3,102.4,75.9,102.4,75.5,102.2z"/>
		<path d="M93.4,97l0.2,1.5c-0.5,0.1-0.9,0.1-1.3,0.1c-0.6,0-1.1-0.1-1.4-0.3c-0.3-0.2-0.6-0.4-0.7-0.8c-0.1-0.3-0.2-1-0.2-2v-5.7    h-1.2v-1.3H90v-2.4l1.7-1v3.4h1.7v1.3h-1.7v5.8c0,0.5,0,0.8,0.1,0.9c0.1,0.1,0.2,0.2,0.3,0.3s0.3,0.1,0.6,0.1    C92.8,97,93.1,97,93.4,97z"/>
		<path d="M94.7,98.4V84.8h1.7v4.9c0.8-0.9,1.8-1.4,2.9-1.4c0.7,0,1.4,0.1,1.9,0.4c0.5,0.3,0.9,0.7,1.2,1.2c0.2,0.5,0.3,1.2,0.3,2.2    v6.2H101v-6.2c0-0.8-0.2-1.4-0.5-1.8c-0.4-0.4-0.9-0.6-1.5-0.6c-0.5,0-1,0.1-1.4,0.4c-0.4,0.3-0.7,0.6-0.9,1s-0.3,1-0.3,1.8v5.4    h-1.7V98.4z"/>
		<path d="M111.7,95.3l1.7,0.2c-0.3,1-0.8,1.8-1.5,2.3c-0.7,0.6-1.7,0.8-2.8,0.8c-1.4,0-2.6-0.4-3.4-1.3c-0.8-0.9-1.3-2.1-1.3-3.7    c0-1.7,0.4-2.9,1.3-3.9c0.9-0.9,2-1.4,3.3-1.4s2.4,0.4,3.2,1.3c0.8,0.9,1.3,2.2,1.3,3.8c0,0.1,0,0.2,0,0.4h-7.4    c0.1,1.1,0.4,1.9,0.9,2.5c0.6,0.6,1.2,0.9,2.1,0.9c0.6,0,1.1-0.2,1.6-0.5C111.1,96.5,111.4,96,111.7,95.3z M106.2,92.6h5.5    c-0.1-0.8-0.3-1.4-0.6-1.9c-0.5-0.6-1.2-1-2.1-1c-0.8,0-1.4,0.3-1.9,0.8C106.5,91,106.3,91.7,106.2,92.6z"/>
		<path d="M130.1,93.7l1.8,0.5c-0.4,1.5-1.1,2.6-2,3.4c-1,0.8-2.2,1.2-3.6,1.2c-1.5,0-2.7-0.3-3.6-0.9c-0.9-0.6-1.6-1.5-2.1-2.6    s-0.7-2.3-0.7-3.6c0-1.4,0.3-2.6,0.8-3.7c0.5-1.1,1.3-1.9,2.3-2.4s2.1-0.8,3.3-0.8c1.4,0,2.5,0.3,3.4,1s1.6,1.7,1.9,2.9l-1.8,0.4    c-0.3-1-0.8-1.7-1.4-2.2c-0.6-0.4-1.4-0.7-2.3-0.7c-1,0-1.9,0.3-2.6,0.8c-0.7,0.5-1.2,1.2-1.5,2s-0.4,1.7-0.4,2.6    c0,1.2,0.2,2.2,0.5,3c0.3,0.9,0.9,1.5,1.6,1.9c0.7,0.4,1.5,0.6,2.3,0.6c1,0,1.9-0.3,2.6-0.9C129.3,95.7,129.8,94.8,130.1,93.7z"/>
		<path d="M133.5,98.4v-9.8h1.5v1.5c0.4-0.7,0.7-1.2,1.1-1.4c0.3-0.2,0.7-0.3,1.1-0.3c0.6,0,1.1,0.2,1.7,0.5l-0.6,1.5    c-0.4-0.2-0.8-0.4-1.2-0.4s-0.7,0.1-1,0.3s-0.5,0.5-0.6,0.9c-0.2,0.6-0.3,1.2-0.3,1.9v5.1h-1.7V98.4z"/>
		<path d="M146,97.2c-0.6,0.5-1.2,0.9-1.8,1.1c-0.6,0.2-1.2,0.3-1.8,0.3c-1.1,0-1.9-0.3-2.5-0.8s-0.9-1.2-0.9-2    c0-0.5,0.1-0.9,0.3-1.3c0.2-0.4,0.5-0.7,0.9-1c0.4-0.2,0.8-0.4,1.2-0.5c0.3-0.1,0.8-0.2,1.5-0.3c1.3-0.2,2.3-0.4,3-0.6    c0-0.2,0-0.4,0-0.4c0-0.7-0.2-1.2-0.5-1.4c-0.4-0.4-1.1-0.6-1.9-0.6c-0.8,0-1.4,0.1-1.7,0.4c-0.4,0.3-0.6,0.8-0.8,1.5l-1.6-0.2    c0.1-0.7,0.4-1.3,0.7-1.7s0.8-0.8,1.5-1c0.6-0.2,1.4-0.3,2.2-0.3s1.5,0.1,2,0.3s0.9,0.4,1.2,0.7c0.2,0.3,0.4,0.7,0.5,1.1    c0.1,0.3,0.1,0.8,0.1,1.5v2.2c0,1.5,0,2.5,0.1,2.9s0.2,0.8,0.4,1.2h-1.7C146.1,98.1,146,97.7,146,97.2z M145.8,93.5    c-0.6,0.2-1.5,0.5-2.7,0.6c-0.7,0.1-1.2,0.2-1.5,0.3s-0.5,0.3-0.7,0.5s-0.2,0.5-0.2,0.8c0,0.4,0.2,0.8,0.5,1.1s0.8,0.4,1.5,0.4    c0.6,0,1.2-0.1,1.7-0.4c0.5-0.3,0.9-0.7,1.1-1.2c0.2-0.4,0.3-0.9,0.3-1.7L145.8,93.5L145.8,93.5z"/>
		<path d="M149.8,98.4v-9.8h1.5V90c0.7-1.1,1.8-1.6,3.1-1.6c0.6,0,1.1,0.1,1.6,0.3s0.9,0.5,1.1,0.8c0.2,0.3,0.4,0.8,0.5,1.2    c0.1,0.3,0.1,0.8,0.1,1.6v6h-1.6v-6c0-0.7-0.1-1.2-0.2-1.5c-0.1-0.3-0.4-0.6-0.7-0.8s-0.7-0.3-1.2-0.3c-0.7,0-1.3,0.2-1.8,0.7    c-0.5,0.4-0.8,1.3-0.8,2.6v5.4L149.8,98.4L149.8,98.4z"/>
		<path d="M166.8,95.3l1.7,0.2c-0.3,1-0.8,1.8-1.5,2.3c-0.7,0.6-1.7,0.8-2.8,0.8c-1.4,0-2.6-0.4-3.4-1.3c-0.8-0.9-1.3-2.1-1.3-3.7    c0-1.7,0.4-2.9,1.3-3.9c0.9-0.9,2-1.4,3.3-1.4s2.4,0.4,3.2,1.3c0.8,0.9,1.3,2.2,1.3,3.8c0,0.1,0,0.2,0,0.4h-7.3    c0.1,1.1,0.4,1.9,0.9,2.5s1.2,0.9,2.1,0.9c0.6,0,1.1-0.2,1.6-0.5C166.2,96.5,166.5,96,166.8,95.3z M161.3,92.6h5.5    c-0.1-0.8-0.3-1.4-0.6-1.9c-0.5-0.6-1.2-1-2.1-1c-0.8,0-1.4,0.3-1.9,0.8C161.7,91,161.4,91.7,161.3,92.6z"/>
		<path d="M178.9,97l0.2,1.5c-0.5,0.1-0.9,0.1-1.3,0.1c-0.6,0-1.1-0.1-1.4-0.3c-0.3-0.2-0.6-0.4-0.7-0.8c-0.1-0.3-0.2-1-0.2-2v-5.7    h-1.2v-1.3h1.2v-2.4l1.7-1v3.4h1.7v1.3h-1.7v5.8c0,0.5,0,0.8,0.1,0.9c0.1,0.1,0.2,0.2,0.3,0.3s0.3,0.1,0.6,0.1    C178.4,97,178.6,97,178.9,97z"/>
		<path d="M179.6,93.5c0-1.8,0.5-3.2,1.5-4c0.8-0.7,1.9-1.1,3.1-1.1c1.4,0,2.5,0.4,3.3,1.3c0.9,0.9,1.3,2.1,1.3,3.7    c0,1.3-0.2,2.3-0.6,3s-0.9,1.3-1.7,1.7c-0.7,0.4-1.5,0.6-2.4,0.6c-1.4,0-2.5-0.4-3.3-1.3C180,96.5,179.6,95.2,179.6,93.5z     M181.3,93.5c0,1.3,0.3,2.2,0.8,2.8c0.6,0.6,1.2,0.9,2.1,0.9c0.8,0,1.5-0.3,2.1-0.9c0.5-0.6,0.8-1.6,0.8-2.9    c0-1.2-0.3-2.1-0.8-2.8c-0.6-0.6-1.2-0.9-2.1-0.9c-0.8,0-1.5,0.3-2.1,0.9C181.6,91.3,181.3,92.3,181.3,93.5z"/>
		<path d="M199.1,97l0.2,1.5c-0.5,0.1-0.9,0.1-1.3,0.1c-0.6,0-1.1-0.1-1.4-0.3s-0.6-0.4-0.7-0.8c-0.1-0.3-0.2-1-0.2-2v-5.7h-1.2    v-1.3h1.2v-2.4l1.7-1v3.4h1.7v1.3h-1.7v5.8c0,0.5,0,0.8,0.1,0.9c0.1,0.1,0.2,0.2,0.3,0.3c0.1,0.1,0.3,0.1,0.6,0.1    C198.5,97,198.8,97,199.1,97z"/>
		<path d="M200.4,98.4V84.8h1.7v4.9c0.8-0.9,1.8-1.4,2.9-1.4c0.7,0,1.4,0.1,1.9,0.4c0.5,0.3,0.9,0.7,1.2,1.2    c0.2,0.5,0.3,1.2,0.3,2.2v6.2h-1.7v-6.2c0-0.8-0.2-1.4-0.5-1.8c-0.4-0.4-0.9-0.6-1.5-0.6c-0.5,0-1,0.1-1.4,0.4    c-0.4,0.3-0.7,0.6-0.9,1c-0.2,0.4-0.3,1-0.3,1.8v5.4h-1.7V98.4z"/>
		<path d="M217.4,95.3l1.7,0.2c-0.3,1-0.8,1.8-1.5,2.3c-0.7,0.6-1.7,0.8-2.8,0.8c-1.4,0-2.6-0.4-3.4-1.3c-0.8-0.9-1.3-2.1-1.3-3.7    c0-1.7,0.4-2.9,1.3-3.9c0.9-0.9,2-1.4,3.3-1.4s2.4,0.4,3.2,1.3c0.8,0.9,1.2,2.2,1.2,3.8c0,0.1,0,0.2,0,0.4h-7.3    c0.1,1.1,0.4,1.9,0.9,2.5c0.6,0.6,1.2,0.9,2.1,0.9c0.6,0,1.1-0.2,1.6-0.5C216.8,96.5,217.1,96,217.4,95.3z M211.9,92.6h5.5    c-0.1-0.8-0.3-1.4-0.6-1.9c-0.5-0.6-1.2-1-2.1-1c-0.8,0-1.4,0.3-1.9,0.8C212.3,91,212,91.7,211.9,92.6z"/>
		<path d="M226.1,98.4V84.8h5.1c0.9,0,1.6,0,2.1,0.1c0.7,0.1,1.2,0.3,1.7,0.6s0.8,0.7,1.1,1.3c0.3,0.6,0.4,1.2,0.4,1.9    c0,1.2-0.4,2.1-1.1,2.9c-0.7,0.8-2.1,1.2-4,1.2h-3.5v5.5h-1.8V98.4z M227.9,91.3h3.5c1.2,0,2-0.2,2.5-0.6c0.5-0.4,0.7-1,0.7-1.8    c0-0.6-0.1-1.1-0.4-1.5s-0.7-0.7-1.1-0.8c-0.3-0.1-0.9-0.1-1.7-0.1h-3.5V91.3z"/>
		<path d="M245,95.3l1.7,0.2c-0.3,1-0.8,1.8-1.5,2.3c-0.7,0.6-1.7,0.8-2.8,0.8c-1.4,0-2.6-0.4-3.4-1.3c-0.8-0.9-1.3-2.1-1.3-3.7    c0-1.7,0.4-2.9,1.3-3.9c0.9-0.9,2-1.4,3.3-1.4s2.4,0.4,3.2,1.3c0.8,0.9,1.2,2.2,1.2,3.8c0,0.1,0,0.2,0,0.4h-7.3    c0.1,1.1,0.4,1.9,0.9,2.5c0.6,0.6,1.2,0.9,2.1,0.9c0.6,0,1.1-0.2,1.6-0.5C244.4,96.5,244.7,96,245,95.3z M239.5,92.6h5.5    c-0.1-0.8-0.3-1.4-0.6-1.9c-0.5-0.6-1.2-1-2.1-1c-0.8,0-1.4,0.3-1.9,0.8C239.8,91,239.5,91.7,239.5,92.6z"/>
		<path d="M254.9,97.2c-0.6,0.5-1.2,0.9-1.8,1.1c-0.6,0.2-1.2,0.3-1.8,0.3c-1.1,0-1.9-0.3-2.5-0.8s-0.9-1.2-0.9-2    c0-0.5,0.1-0.9,0.3-1.3c0.2-0.4,0.5-0.7,0.9-1c0.4-0.2,0.8-0.4,1.2-0.5c0.3-0.1,0.8-0.2,1.5-0.3c1.3-0.2,2.3-0.4,3-0.6    c0-0.2,0-0.4,0-0.4c0-0.7-0.2-1.2-0.5-1.4c-0.4-0.4-1.1-0.6-1.9-0.6s-1.4,0.1-1.7,0.4c-0.4,0.3-0.7,0.8-0.8,1.5l-1.6-0.2    c0.1-0.7,0.4-1.3,0.7-1.7c0.3-0.4,0.8-0.8,1.5-1c0.6-0.2,1.4-0.3,2.2-0.3c0.8,0,1.5,0.1,2,0.3s0.9,0.4,1.2,0.7    c0.2,0.3,0.4,0.7,0.5,1.1c0.1,0.3,0.1,0.8,0.1,1.5v2.2c0,1.5,0,2.5,0.1,2.9s0.2,0.8,0.4,1.2h-1.7C255,98.1,254.9,97.7,254.9,97.2z     M254.7,93.5c-0.6,0.2-1.5,0.5-2.7,0.6c-0.7,0.1-1.2,0.2-1.5,0.3s-0.5,0.3-0.7,0.5s-0.2,0.5-0.2,0.8c0,0.4,0.2,0.8,0.5,1.1    s0.8,0.4,1.5,0.4c0.6,0,1.2-0.1,1.7-0.4c0.5-0.3,0.9-0.7,1.1-1.2c0.2-0.4,0.3-0.9,0.3-1.7L254.7,93.5L254.7,93.5z"/>
		<path d="M258.7,98.4v-9.8h1.5v1.5c0.4-0.7,0.7-1.2,1.1-1.4c0.3-0.2,0.7-0.3,1.1-0.3c0.6,0,1.1,0.2,1.7,0.5l-0.6,1.5    c-0.4-0.2-0.8-0.4-1.2-0.4c-0.4,0-0.7,0.1-1,0.3s-0.5,0.5-0.6,0.9c-0.2,0.6-0.3,1.2-0.3,1.9v5.1h-1.7V98.4z"/>
		<path d="M264.7,98.4V84.8h1.7v13.6H264.7z"/>
		<path d="M273,93.5c0-1.8,0.5-3.2,1.5-4c0.8-0.7,1.9-1.1,3.1-1.1c1.4,0,2.5,0.4,3.3,1.3c0.9,0.9,1.3,2.1,1.3,3.7    c0,1.3-0.2,2.3-0.6,3s-0.9,1.3-1.7,1.7c-0.7,0.4-1.5,0.6-2.4,0.6c-1.4,0-2.5-0.4-3.3-1.3C273.4,96.5,273,95.2,273,93.5z     M274.7,93.5c0,1.3,0.3,2.2,0.8,2.8s1.2,0.9,2.1,0.9c0.8,0,1.5-0.3,2.1-0.9c0.6-0.6,0.8-1.6,0.8-2.9c0-1.2-0.3-2.1-0.8-2.8    c-0.6-0.6-1.2-0.9-2.1-0.9c-0.8,0-1.5,0.3-2.1,0.9C275,91.3,274.7,92.3,274.7,93.5z"/>
		<path d="M284.2,98.4v-8.5h-1.5v-1.3h1.5v-1c0-0.7,0.1-1.2,0.2-1.5c0.2-0.4,0.4-0.8,0.8-1.1s1-0.4,1.7-0.4c0.5,0,1,0.1,1.6,0.2    l-0.3,1.5c-0.3-0.1-0.7-0.1-1-0.1c-0.5,0-0.9,0.1-1.1,0.3s-0.3,0.6-0.3,1.2v0.9h1.9v1.3h-1.9v8.5L284.2,98.4L284.2,98.4z"/>
		<path d="M291.5,98.4l5.2-13.6h1.9l5.6,13.6h-2l-1.6-4.1h-5.7l-1.5,4.1H291.5z M295.4,92.9h4.6l-1.4-3.8c-0.4-1.1-0.8-2.1-1-2.8    c-0.2,0.9-0.4,1.7-0.7,2.6L295.4,92.9z"/>
		<path d="M305.5,98.4v-8.5H304v-1.3h1.5v-1c0-0.7,0.1-1.2,0.2-1.5c0.2-0.4,0.4-0.8,0.8-1.1s1-0.4,1.7-0.4c0.5,0,1,0.1,1.6,0.2    l-0.3,1.5c-0.3-0.1-0.7-0.1-1-0.1c-0.5,0-0.9,0.1-1.1,0.3s-0.3,0.6-0.3,1.2v0.9h1.9v1.3h-1.9v8.5L305.5,98.4L305.5,98.4z"/>
		<path d="M310,98.4v-9.8h1.5v1.5c0.4-0.7,0.7-1.2,1.1-1.4c0.3-0.2,0.7-0.3,1.1-0.3c0.6,0,1.1,0.2,1.7,0.5l-0.6,1.5    c-0.4-0.2-0.8-0.4-1.2-0.4c-0.4,0-0.7,0.1-1,0.3s-0.5,0.5-0.6,0.9c-0.2,0.6-0.3,1.2-0.3,1.9v5.1H310V98.4z"/>
		<path d="M316.1,86.8v-1.9h1.7v1.9H316.1z M316.1,98.4v-9.8h1.7v9.8H316.1z"/>
		<path d="M326.4,94.8L328,95c-0.2,1.1-0.6,2-1.4,2.7c-0.7,0.6-1.6,1-2.7,1c-1.3,0-2.4-0.4-3.2-1.3c-0.8-0.9-1.2-2.1-1.2-3.8    c0-1.1,0.2-2,0.5-2.8c0.4-0.8,0.9-1.4,1.6-1.8c0.7-0.4,1.5-0.6,2.3-0.6c1.1,0,1.9,0.3,2.6,0.8s1.1,1.3,1.3,2.3l-1.6,0.2    c-0.2-0.7-0.4-1.2-0.8-1.5s-0.9-0.5-1.4-0.5c-0.8,0-1.5,0.3-2,0.9c-0.5,0.6-0.8,1.6-0.8,2.9c0,1.3,0.3,2.3,0.8,2.9    c0.5,0.6,1.2,0.9,2,0.9c0.7,0,1.2-0.2,1.6-0.6C326,96.3,326.3,95.7,326.4,94.8z"/>
		<path d="M335.6,97.2c-0.6,0.5-1.2,0.9-1.8,1.1c-0.6,0.2-1.2,0.3-1.8,0.3c-1.1,0-1.9-0.3-2.5-0.8s-0.9-1.2-0.9-2    c0-0.5,0.1-0.9,0.3-1.3c0.2-0.4,0.5-0.7,0.9-1c0.4-0.2,0.8-0.4,1.2-0.5c0.3-0.1,0.8-0.2,1.5-0.3c1.3-0.2,2.3-0.4,3-0.6    c0-0.2,0-0.4,0-0.4c0-0.7-0.2-1.2-0.5-1.4c-0.4-0.4-1.1-0.6-1.9-0.6s-1.4,0.1-1.7,0.4c-0.4,0.3-0.7,0.8-0.8,1.5l-1.6-0.2    c0.1-0.7,0.4-1.3,0.7-1.7c0.3-0.4,0.8-0.8,1.5-1c0.6-0.2,1.4-0.3,2.2-0.3c0.8,0,1.5,0.1,2,0.3s0.9,0.4,1.2,0.7    c0.2,0.3,0.4,0.7,0.5,1.1c0.1,0.3,0.1,0.8,0.1,1.5v2.2c0,1.5,0,2.5,0.1,2.9s0.2,0.8,0.4,1.2H336C335.7,98.1,335.6,97.7,335.6,97.2    z M335.4,93.5c-0.6,0.2-1.5,0.5-2.7,0.6c-0.7,0.1-1.2,0.2-1.5,0.3s-0.5,0.3-0.7,0.5s-0.2,0.5-0.2,0.8c0,0.4,0.2,0.8,0.5,1.1    s0.8,0.4,1.5,0.4c0.6,0,1.2-0.1,1.7-0.4c0.5-0.3,0.9-0.7,1.1-1.2c0.2-0.4,0.3-0.9,0.3-1.7L335.4,93.5L335.4,93.5z"/>
	</g>
</g>
</svg>